<?xml version="1.0" standalone="no"?>
<!DOCTYPE svg PUBLIC "-//W3C//DTD SVG 20010904//EN"
 "http://www.w3.org/TR/2001/REC-SVG-20010904/DTD/svg10.dtd">
<svg version="1" xmlns="http://www.w3.org/2000/svg"
 width="772pt" height="274pt" viewBox="0 0 772 274"
 preserveAspectRatio="xMidYMid meet">
<metadata>
Created by potrace 1.16, written by Peter Selinger 2001-2019
</metadata>
<g transform="matrix(0.1,0,0,-0.1,0,274)"
fill="rgb(43, 86, 134)" stroke="none">
<path transform="matrix(1,0,0,0.9,-16.2,53.2)" d="M 244.9 1658.3 l 0 -980 l 1030 0 l 1030 0 l 0 980 l 0 980 l -1030 0 l -1030 0 l 0 -980 z m 1980 0 l 0 -900 l -950 0 l -950 0 l 0 900 l 0 900 l 950 0 l 950 0 l 0 -900 z"/>
<path transform="matrix(1,0,0,0.9,-16.2,52.3)" d="M 1150.9 2342.3 c -301 -64 -513 -294 -559 -604 c -36 -253 108 -541 338 -677 c 226 -132 484 -132 710 0 c 230 136 374 424 338 677 c -46 313 -259 542 -565 605 c -94 19 -170 19 -262 -1 z m 251 -51 c 8 -5 -58 -78 -202 -222 l -215 -215 l 0 188 l 0 188 l 44 19 c 78 35 149 49 256 49 c 58 0 110 -3 117 -7 z m 133 -39 c 85 -32 183 -111 274 -220 l 19 -23 l -309 0 l -309 0 l 130 130 c 71 72 134 130 140 130 c 5 0 30 -8 55 -17 z m -600 -360 l 0 -308 l -132 132 l -132 132 l 19 53 c 27 76 83 155 166 231 c 39 37 73 67 75 67 c 2 0 4 -138 4 -307 z m 562 -20 l 88 -88 l 0 -125 l 0 -125 l -88 -88 l -87 -87 l -125 0 l -125 0 l -87 87 l -88 88 l 0 125 l 0 125 l 87 87 l 88 88 l 125 0 l 125 0 l 87 -87 z m 373 56 c 32 -60 55 -179 55 -278 c 0 -53 -4 -101 -8 -108 c -5 -8 -78 58 -222 202 l -215 215 l 187 0 l 187 0 l 16 -31 z m -967 -567 c -210 -3 -195 -9 -230 98 c -22 69 -36 256 -24 306 c 7 27 15 20 222 -187 l 214 -214 l -182 -3 z m 977 56 c -32 -90 -108 -188 -222 -282 l -23 -19 l 0 309 l 0 309 l 132 -132 l 132 -132 l -19 -53 z m -312 -336 c -40 -29 -150 -54 -255 -59 c -190 -9 -194 -24 53 223 l 214 214 l 3 -182 c 2 -165 1 -184 -15 -196 z m -340 96 l -132 -132 l -53 19 c -90 32 -188 108 -282 223 l -19 22 l 309 0 l 309 0 l -132 -132 z"/>
<path transform="matrix(1,0,0,0.9,-43.7,58.5)" d="M 4967.2 1914.7 c -43 -20 -101 -79 -116 -119 c -22 -59 -2 -152 44 -201 c 77 -83 227 -83 304 0 c 26 27 53 88 53 118 c 0 19 -6 20 -110 20 l -110 0 l 0 -35 l 0 -35 l 48 0 l 47 -1 l -24 -19 c -37 -32 -87 -26 -127 14 c -38 38 -44 77 -19 126 c 19 37 43 50 95 50 c 33 0 48 -6 72 -30 c 27 -27 36 -31 80 -28 l 49 3 l -24 45 c -47 90 -172 134 -262 92 z"/>
<path transform="matrix(1,0,0,0.9,-27.1,58.1)" d="M 2715.7 1728.1 l 0 -195 l 50 0 l 50 0 l 0 195 l 0 195 l -50 0 l -50 0 l 0 -195 z"/>
<path transform="matrix(1,0,0,0.9,-48.3,58)" d="M 5638.8 1731.2 l 3 -193 l 38 -3 l 37 -3 l 0 195 l 0 196 l -40 0 l -40 0 l 2 -192 z"/>
<path transform="matrix(1,0,0,0.9,-49.3,58.1)" d="M 5767.7 1728.1 l 0 -195 l 35 0 l 35 0 l 0 195 l 0 195 l -35 0 l -35 0 l 0 -195 z"/>
<path transform="matrix(1,0,0,0.9,-53,55.2)" d="M 6348.4 1830.2 c -4 -4 -32 -6 -62 -5 l -55 2 l 0 -146 l 0 -145 l 34 0 l 34 0 l 4 91 c 3 81 6 93 27 110 c 13 10 34 19 48 19 c 22 0 24 4 21 38 c -2 28 -8 38 -23 40 c -12 2 -24 0 -28 -4 z"/>
<path transform="matrix(1,0,0,0.9,-29.3,55)" d="M 2857.9 1681.4 l 0 -145 l 40 0 l 40 0 l 0 90 c 0 77 3 93 20 110 c 50 50 80 8 80 -112 l 0 -88 l 35 0 l 35 0 l 0 93 c 0 78 3 97 18 110 c 24 22 35 21 55 -1 c 13 -15 17 -39 17 -110 l 0 -92 l 40 0 l 40 0 l 0 101 c 0 113 -14 159 -56 178 c -38 17 -98 13 -125 -8 c -24 -18 -25 -18 -47 0 c -18 14 -40 18 -107 18 l -85 0 l 0 -144 z"/>
<path transform="matrix(1,0,0,0.9,-32.1,54)" d="M 3394.6 1812.5 c -36 -15 -72 -61 -80 -103 c -19 -97 98 -197 189 -163 c 17 7 28 7 32 1 c 4 -6 22 -10 41 -10 l 34 0 l 0 144 l 0 144 l -92 1 c -55 0 -106 -6 -124 -14 z m 110 -76 c 53 -42 24 -119 -45 -119 c -31 0 -69 40 -69 72 c 0 24 44 68 68 68 c 11 0 31 -9 46 -21 z"/>
<path transform="matrix(1,0,0,0.9,-34.6,49.2)" d="M 3732.2 1813.6 c -91 -49 -95 -180 -7 -243 c 27 -19 45 -23 96 -22 c 71 2 79 -11 41 -60 c -31 -39 -86 -34 -114 11 c -16 26 -27 32 -56 33 c -34 0 -35 -1 -31 -31 c 6 -43 69 -104 115 -113 c 89 -17 168 41 182 130 c 4 26 4 107 0 180 l -7 132 l -93 1 c -70 0 -100 -4 -126 -18 z m 119 -68 c 52 -44 24 -123 -43 -123 c -43 0 -79 41 -70 80 c 7 32 40 60 70 60 c 13 0 32 -8 43 -17 z"/>
<path transform="matrix(1,0,0,0.9,-37.1,54.8)" d="M 4085.6 1808.6 c -73 -37 -102 -131 -60 -199 c 47 -78 165 -89 232 -23 c 15 16 28 33 28 39 c 0 14 -87 15 -95 1 c -13 -21 -95 -4 -95 20 c 0 6 42 10 100 10 l 100 0 l 0 39 c 0 28 -8 49 -26 71 c -51 60 -118 76 -184 42 z"/>
<path transform="matrix(1,0,0,0.9,-39.6,54.6)" d="M 4401.1 1811.8 c -52 -22 -68 -74 -35 -114 c 9 -12 46 -32 81 -44 c 68 -23 91 -47 48 -47 c -36 0 -57 10 -57 26 c 0 10 -13 14 -45 14 c -38 0 -45 -3 -45 -19 c 0 -32 11 -51 39 -65 c 96 -49 231 -13 231 62 c 0 39 -34 68 -108 93 c -63 21 -76 33 -44 41 c 22 6 62 -8 62 -22 c 0 -5 20 -10 45 -10 c 49 0 56 10 29 48 c -34 50 -131 68 -201 37 z"/>
<path transform="matrix(1,0,0,0.9,-46.6,54.3)" d="M 5369 1808.2 c -58 -36 -85 -103 -64 -165 c 23 -71 118 -122 183 -97 c 17 7 28 7 32 1 c 4 -6 22 -10 41 -10 l 34 0 l 0 144 l 0 144 l -98 1 c -78 0 -105 -4 -128 -18 z m 120 -72 c 50 -39 22 -119 -43 -119 c -33 0 -71 39 -71 72 c 0 24 44 68 68 68 c 11 0 31 -9 46 -21 z"/>
<path transform="matrix(1,0,0,0.9,-50.8,55.7)" d="M 5974.3 1811.7 c -98 -44 -116 -186 -30 -242 c 37 -24 91 -33 132 -22 c 36 10 93 57 93 77 c 0 14 -87 15 -95 1 c -13 -21 -95 -4 -95 20 c 0 6 43 10 101 10 l 102 0 l -6 46 c -10 95 -111 150 -202 110 z"/>
<path transform="matrix(1,0,0,0.9,-55,48.8)" d="M 6443.4 1742 c 0 -73 4 -98 19 -123 c 34 -55 108 -84 169 -67 c 31 9 32 8 32 -18 c 0 -37 -34 -71 -70 -71 c -32 0 -70 30 -70 55 c 0 11 -11 15 -41 15 c -41 0 -41 -1 -36 -30 c 20 -97 137 -146 225 -95 c 60 36 72 80 72 263 l 0 162 l -40 0 l -40 0 l 0 -83 c 0 -74 -3 -86 -23 -105 c -29 -27 -71 -28 -97 -2 c -17 17 -20 33 -20 105 l 0 85 l -40 0 l -40 0 l 0 -91 z"/>
</g>
    <linearGradient id="n5oa9vog"/>
    <linearGradient id="rs2l8tje"/>
</svg>
